<svg width="39" height="39" viewBox="0 0 39 39" fill="none" xmlns="http://www.w3.org/2000/svg">
<path d="M34.7754 16.6279C33.265 9.2516 26.6941 3.89758 19.1519 3.89758C10.3578 3.89758 3.20312 11.0522 3.20312 19.8464C3.20312 27.3886 8.55714 33.9595 15.9335 35.4699C16.1919 35.5247 16.4599 35.5138 16.713 35.438C16.966 35.3621 17.1959 35.2239 17.3816 35.036L34.34 18.0777C34.7196 17.6981 34.8823 17.1558 34.7754 16.6279ZM17.5571 29.4157C17.5497 26.874 18.3084 24.3891 19.7341 22.285C20.1935 21.6069 20.7157 20.9736 21.2939 20.3934C21.8733 19.8162 22.5055 19.2945 23.1822 18.8352C23.8661 18.3748 24.5924 17.9807 25.3512 17.6582C26.1184 17.3345 26.9238 17.0841 27.7452 16.915C28.884 16.6888 30.0481 16.6169 31.2061 16.7013L17.6033 30.304C17.5826 30.009 17.5571 29.7139 17.5571 29.4157ZM6.39289 19.8464C6.39289 12.8114 12.1169 7.08735 19.1519 7.08735C23.7914 7.08735 27.9684 9.62161 30.2029 13.4748C29.1621 13.4786 28.1242 13.5844 27.104 13.7906C26.0785 14.0012 25.0721 14.3138 24.1072 14.7204C23.1592 15.1238 22.2519 15.6167 21.3975 16.1925C20.5475 16.7683 19.7548 17.4222 19.0387 18.1383C18.3226 18.8544 17.6703 19.6454 17.0914 20.4987C16.5188 21.3488 16.0228 22.2595 15.6209 23.2068C14.7926 25.172 14.3664 27.2831 14.3673 29.4157C14.3673 30.1988 14.4438 30.9771 14.5571 31.7458C9.7246 29.875 6.39289 25.1669 6.39289 19.8464Z" fill="#C09D2A"/>
</svg>
