<svg width="39" height="39" viewBox="0 0 39 39" fill="none" xmlns="http://www.w3.org/2000/svg">
<path d="M32.3498 3.89758H13.2112C11.4521 3.89758 10.0215 5.32819 10.0215 7.08735V26.2259C10.0215 27.9851 11.4521 29.4157 13.2112 29.4157H32.3498C34.109 29.4157 35.5396 27.9851 35.5396 26.2259V7.08735C35.5396 5.32819 34.109 3.89758 32.3498 3.89758ZM13.2112 26.2259V7.08735H32.3498L32.353 26.2259H13.2112Z" fill="#C09D2A"/>
<path d="M6.83234 13.467H3.64258V32.6056C3.64258 34.3647 5.07319 35.7953 6.83234 35.7953H25.9709V32.6056H6.83234V13.467ZM24.376 10.2772H21.1863V15.0619H16.4016V18.2516H21.1863V23.0363H24.376V18.2516H29.1607V15.0619H24.376V10.2772Z" fill="#C09D2A"/>
</svg>
