<svg width="39" height="39" viewBox="0 0 39 39" fill="none" xmlns="http://www.w3.org/2000/svg">
<path d="M22.4294 4.36496C22.2814 4.21672 22.1056 4.09912 21.9121 4.01888C21.7186 3.93864 21.5112 3.89734 21.3018 3.89734C21.0923 3.89734 20.8849 3.93864 20.6914 4.01888C20.4979 4.09912 20.3222 4.21672 20.1742 4.36496L10.8601 13.6791C10.8362 13.6775 10.8138 13.6647 10.7899 13.6647C10.5805 13.6645 10.373 13.7057 10.1795 13.7859C9.986 13.8661 9.81024 13.9837 9.66234 14.132L7.40717 16.3872C6.96188 16.8309 6.60888 17.3584 6.36854 17.9393C6.1282 18.5202 6.00527 19.1429 6.00687 19.7715C6.00687 21.0506 6.50607 22.2532 7.40877 23.1543L8.53635 24.2818L5.15201 27.6662C4.70567 28.1045 4.3522 28.6282 4.11271 29.2061C3.87322 29.784 3.75261 30.4042 3.75809 31.0298C3.75055 31.7306 3.89873 32.4243 4.19192 33.0609C4.4851 33.6974 4.91598 34.261 5.45344 34.7108C6.28119 35.4109 7.34816 35.7953 8.4598 35.7953C9.78993 35.7953 11.0977 35.2514 12.0483 34.3009L15.3018 31.0489L16.4294 32.1749C18.238 33.9819 21.3879 33.9835 23.1949 32.1765L25.4517 29.9213C25.6 29.7734 25.7176 29.5977 25.7978 29.4042C25.878 29.2107 25.9192 29.0032 25.919 28.7938C25.919 28.7523 25.8982 28.714 25.895 28.6725L35.1884 19.3792C35.3367 19.2312 35.4543 19.0554 35.5345 18.8619C35.6147 18.6685 35.656 18.4611 35.656 18.2516C35.656 18.0421 35.6147 17.8347 35.5345 17.6412C35.4543 17.4478 35.3367 17.272 35.1884 17.124L22.4294 4.36496ZM20.9381 29.9213C20.6343 30.2114 20.2303 30.3732 19.8102 30.3729C19.3902 30.3726 18.9864 30.2103 18.683 29.9197L16.4278 27.6662C16.2798 27.5179 16.1041 27.4003 15.9106 27.3201C15.7171 27.2399 15.5097 27.1986 15.3002 27.1986C15.0908 27.1986 14.8834 27.2399 14.6899 27.3201C14.4964 27.4003 14.3206 27.5179 14.1727 27.6662L9.79312 32.0441C9.44023 32.4 8.96092 32.6018 8.4598 32.6055C8.11461 32.6111 7.77872 32.4935 7.51244 32.2738C7.32968 32.1225 7.18383 31.9316 7.086 31.7154C6.98816 31.4993 6.94091 31.2637 6.94785 31.0266C6.94618 30.8213 6.98585 30.6178 7.06449 30.4282C7.14313 30.2386 7.25913 30.0668 7.40558 29.9229L11.9175 25.411C12.0657 25.263 12.1833 25.0873 12.2636 24.8938C12.3438 24.7003 12.3851 24.4929 12.3851 24.2834C12.3851 24.074 12.3438 23.8666 12.2636 23.6731C12.1833 23.4796 12.0657 23.3038 11.9175 23.1559L9.66074 20.8991C9.5124 20.7516 9.39484 20.5761 9.3149 20.3828C9.23495 20.1895 9.19421 19.9823 9.19504 19.7731C9.19504 19.3457 9.3609 18.9454 9.66234 18.6439L10.7899 17.5164L22.0673 28.7954L20.9381 29.9213ZM23.9509 26.1064L13.447 15.6025L21.3018 7.7477L31.8057 18.2516L23.9509 26.1064Z" fill="#C09D2A"/>
</svg>
