<svg width="50" height="50" viewBox="0 0 50 50" fill="none" xmlns="http://www.w3.org/2000/svg">
<path d="M17.2223 30.5833C16.8389 30.5833 16.5806 30.6208 16.4473 30.6583V33.1125C16.6056 33.15 16.8035 33.1604 17.0764 33.1604C18.0743 33.1604 18.6889 32.6562 18.6889 31.8041C18.6889 31.0416 18.1598 30.5833 17.2223 30.5833ZM24.4868 30.6083C24.0702 30.6083 23.7993 30.6458 23.6389 30.6833V36.1208C23.7993 36.1583 24.0577 36.1583 24.291 36.1583C25.9931 36.1708 27.1014 35.2333 27.1014 33.25C27.1139 31.5208 26.1035 30.6083 24.4868 30.6083Z" fill="#C09D2A"/>
<path d="M29.1673 4.16669H12.5007C11.3956 4.16669 10.3358 4.60567 9.55437 5.38708C8.77297 6.16848 8.33398 7.22829 8.33398 8.33335V41.6667C8.33398 42.7718 8.77297 43.8316 9.55437 44.613C10.3358 45.3944 11.3956 45.8334 12.5007 45.8334H37.5007C38.6057 45.8334 39.6655 45.3944 40.4469 44.613C41.2283 43.8316 41.6673 42.7718 41.6673 41.6667V16.6667L29.1673 4.16669ZM19.7882 33.7292C19.1444 34.3334 18.1944 34.6042 17.0882 34.6042C16.8737 34.6065 16.6593 34.594 16.4465 34.5667V37.5375H14.584V29.3375C15.4245 29.2121 16.2738 29.155 17.1236 29.1667C18.284 29.1667 19.109 29.3875 19.6652 29.8313C20.1944 30.2521 20.5527 30.9417 20.5527 31.7542C20.5506 32.5709 20.2798 33.2604 19.7882 33.7292ZM27.7194 36.5521C26.8444 37.2792 25.5132 37.625 23.8861 37.625C22.9111 37.625 22.2215 37.5625 21.7527 37.5V29.3396C22.5936 29.2169 23.4426 29.1591 24.2923 29.1667C25.8694 29.1667 26.8944 29.45 27.6944 30.0542C28.559 30.6959 29.1007 31.7188 29.1007 33.1875C29.1007 34.7771 28.5194 35.875 27.7194 36.5521ZM35.4173 30.7709H32.2257V32.6688H35.209V34.1979H32.2257V37.5396H30.3382V29.2292H35.4173V30.7709ZM29.1673 18.75H27.084V8.33335L37.5007 18.75H29.1673Z" fill="#C09D2A"/>
</svg>
