<svg width="39" height="39" viewBox="0 0 39 39" fill="none" xmlns="http://www.w3.org/2000/svg">
<path d="M32.286 3.89758H16.3372C14.578 3.89758 13.1474 5.32819 13.1474 7.08735V13.4669H6.76789C5.00873 13.4669 3.57812 14.8975 3.57812 16.6566V32.6054C3.57812 34.3646 5.00873 35.7952 6.76789 35.7952H22.7167C24.4759 35.7952 25.9065 34.3646 25.9065 32.6054V26.2259H32.286C34.0451 26.2259 35.4758 24.7953 35.4758 23.0362V7.08735C35.4758 5.32819 34.0451 3.89758 32.286 3.89758ZM6.76789 32.6054V16.6566H22.7167L22.7199 32.6054H6.76789ZM32.286 23.0362H25.9065V16.6566C25.9065 14.8975 24.4759 13.4669 22.7167 13.4669H16.3372V7.08735H32.286V23.0362Z" fill="#C09D2A"/>
</svg>
