<svg width="51" height="50" viewBox="0 0 51 50" fill="none" xmlns="http://www.w3.org/2000/svg">
<path d="M25.1634 4.16669C13.6759 4.16669 4.33008 13.5125 4.33008 25C4.33008 36.4875 13.6759 45.8334 25.1634 45.8334C36.6509 45.8334 45.9967 36.4875 45.9967 25C45.9967 13.5125 36.6509 4.16669 25.1634 4.16669ZM25.1634 41.6667C15.9738 41.6667 8.49675 34.1896 8.49675 25C8.49675 15.8104 15.9738 8.33335 25.1634 8.33335C34.353 8.33335 41.8301 15.8104 41.8301 25C41.8301 34.1896 34.353 41.6667 25.1634 41.6667Z" fill="#C09D2A"/>
<path d="M20.9949 28.3063L16.2053 23.525L13.2637 26.475L20.9991 34.1938L34.9699 20.2229L32.0241 17.2771L20.9949 28.3063Z" fill="#C09D2A"/>
</svg>
