<svg width="50" height="50" viewBox="0 0 50 50" fill="none" xmlns="http://www.w3.org/2000/svg">
<path d="M41.6667 4.16669H16.6667C14.3687 4.16669 12.5 6.03544 12.5 8.33335V33.3334C12.5 35.6313 14.3687 37.5 16.6667 37.5H41.6667C43.9646 37.5 45.8333 35.6313 45.8333 33.3334V8.33335C45.8333 6.03544 43.9646 4.16669 41.6667 4.16669ZM16.6667 33.3334V8.33335H41.6667L41.6708 33.3334H16.6667Z" fill="#C09D2A"/>
<path d="M8.33268 16.6667H4.16602V41.6667C4.16602 43.9646 6.03477 45.8333 8.33268 45.8333H33.3327V41.6667H8.33268V16.6667ZM31.2493 12.5H27.0827V18.75H20.8327V22.9167H27.0827V29.1667H31.2493V22.9167H37.4993V18.75H31.2493V12.5Z" fill="#C09D2A"/>
</svg>
